<?xml version="1.0" encoding="UTF-8"?>
<svg width="100px" height="60px" viewBox="0 0 100 60" version="1.1" xmlns="http://www.w3.org/2000/svg" xmlns:xlink="http://www.w3.org/1999/xlink">
    <g stroke="none" stroke-width="1" fill="none" fill-rule="evenodd">
        <g transform="translate(0.000000, 0.000000)" fill="#FF9900">
            <path d="M28.4,39.2 L24.5,39.2 L24.5,27.7 L28.4,27.7 L28.4,39.2 Z M26.5,25.9 C25.5,25.9 24.7,25.1 24.7,24.1 C24.7,23.1 25.5,22.3 26.5,22.3 C27.5,22.3 28.3,23.1 28.3,24.1 C28.3,25.1 27.5,25.9 26.5,25.9 Z M40.8,39.2 L37.1,39.2 L37.1,33.5 C37.1,31.9 36.6,31 35.3,31 C34,31 33.2,32 33.2,33.9 L33.2,39.2 L29.5,39.2 L29.5,27.7 L33.2,27.7 L33.2,29.3 C34,28.2 35.2,27.5 36.8,27.5 C39.3,27.5 40.9,29.2 40.9,32.3 L40.9,39.2 L40.8,39.2 Z M47.6,39.4 C44.1,39.4 41.7,37 41.7,33.5 C41.7,30 44.1,27.5 47.6,27.5 C51.1,27.5 53.5,30 53.5,33.5 C53.5,37 51.1,39.4 47.6,39.4 Z M47.6,36.3 C49,36.3 49.8,35.2 49.8,33.5 C49.8,31.8 49,30.7 47.6,30.7 C46.2,30.7 45.4,31.8 45.4,33.5 C45.4,35.2 46.2,36.3 47.6,36.3 Z M60.3,39.4 C56.8,39.4 54.4,37 54.4,33.5 C54.4,30 56.8,27.5 60.3,27.5 C63.8,27.5 66.2,30 66.2,33.5 C66.2,37 63.8,39.4 60.3,39.4 Z M60.3,36.3 C61.7,36.3 62.5,35.2 62.5,33.5 C62.5,31.8 61.7,30.7 60.3,30.7 C58.9,30.7 58.1,31.8 58.1,33.5 C58.1,35.2 58.9,36.3 60.3,36.3 Z M73.1,39.2 L69.4,39.2 L69.4,27.7 L73.1,27.7 L73.1,29.3 C73.9,28.2 75.1,27.5 76.7,27.5 C79.2,27.5 80.8,29.2 80.8,32.3 L80.8,39.2 L77.1,39.2 L77.1,33.5 C77.1,31.9 76.6,31 75.3,31 C74,31 73.2,32 73.2,33.9 L73.2,39.2 L73.1,39.2 Z"></path>
            <path d="M86.4,22.8 C80.8,22.8 76.2,24.2 72.5,26.8 C71.9,27.2 71.8,27.3 72.1,27.9 L73.1,29.5 C73.3,29.9 73.6,29.9 74,29.6 C77.1,27.5 81.1,26.2 85.8,26.2 C89.1,26.2 91.6,27.1 91.6,29.8 L91.6,30.7 C87.9,30.5 83.2,30.9 79.9,32.2 C76.3,33.6 74.2,36.1 74.2,39.9 C74.2,44.1 77.1,46.4 81.1,46.4 C84.7,46.4 86.8,45.1 89.1,42.9 L89.4,43 C89.8,43.1 90.1,43.3 90.1,43.8 L90.1,45.8 C90.1,46.1 90.3,46.3 90.6,46.3 L93.3,46.3 C93.6,46.3 93.8,46.1 93.8,45.8 L93.8,30.5 C93.8,25.5 90.9,22.8 86.4,22.8 Z M91.6,37.1 C91.6,37.6 91.5,38 91.3,38.4 C90.3,40.3 88.4,41.6 86.2,41.6 C84.3,41.6 83,40.6 83,38.8 C83,35.5 87.1,34.8 91.6,35 L91.6,37.1 Z"></path>
            <path d="M63.5,46.4 C57.3,50.9 48.5,53.3 41,53.3 C30.4,53.3 20.8,49.3 13.7,42.6 C13.2,42.1 13.6,41.5 14.2,41.9 C22,46.5 31.6,49.1 41.5,49.1 C48.3,49.1 55.8,47.7 62.6,44.8 C63.6,44.3 64.4,45.5 63.5,46.4"></path>
            <path d="M66.7,42.7 C65.9,41.6 61.2,42.1 59.1,42.4 C58.5,42.5 58.4,42 58.9,41.6 C62.9,38.8 69.3,39.5 70,40.4 C70.7,41.3 69.8,47.2 66.1,50.3 C65.6,50.7 65.1,50.5 65.3,49.9 C66,48.2 67.5,43.7 66.7,42.7"></path>
        </g>
    </g>
</svg>